<svg xmlns="http://www.w3.org/2000/svg" width="1024.009" height="1024.009" version="1.1" viewBox="0 0 270.936 270.935">
   <g transform="translate(-32.618 -75.718)">
      <rect width="230.833" height="230.833" x="52.67" y="95.769" fill="#232323" fill-opacity="1" stroke-width=".852" rx="8.522" ry="8.522"/>
      <path fill="#efefef" stroke="#000" stroke-width=".085" d="M82.795 121.904a9.636 9.636 0 0 0-9.657 9.658v8.354a9.636 9.636 0 0 0 9.657 9.657H253.38a9.636 9.636 0 0 0 9.657-9.657v-8.354a9.636 9.636 0 0 0-9.657-9.658zm-.002 42.208a9.637 9.637 0 0 0-9.657 9.658v117.04a9.634 9.634 0 0 0 9.657 9.656h36.49a9.632 9.632 0 0 0 9.655-9.655V173.77a9.634 9.634 0 0 0-9.654-9.658zm67.05 0a9.637 9.637 0 0 0-9.657 9.658v85.9a9.634 9.634 0 0 0 9.657 9.656h36.49a9.634 9.634 0 0 0 9.655-9.655V173.77a9.637 9.637 0 0 0-9.656-9.658zm66.14 0a9.637 9.637 0 0 0-9.657 9.658v101a9.634 9.634 0 0 0 9.656 9.655h36.49a9.634 9.634 0 0 0 9.655-9.655v-101a9.637 9.637 0 0 0-9.656-9.658z"/>
   </g>
</svg>