<svg xmlns="http://www.w3.org/2000/svg" width="1024" height="1024" version="1.1" viewBox="0 0 254 254">
   <style id="style182">@media (prefers-color-scheme: dark) { :root { fill: #fff; } }</style>
   <path fill="#232323" fill-opacity="1" stroke="#000" stroke-width=".085" d="M41.709 37.719a9.636 9.636 0 0 0-9.658 9.658v8.354a9.636 9.636 0 0 0 9.658 9.657h170.584a9.636 9.636 0 0 0 9.657-9.657v-8.354a9.636 9.636 0 0 0-9.656-9.658zm-.003 42.208a9.637 9.637 0 0 0-9.657 9.658v117.04a9.634 9.634 0 0 0 9.657 9.656h36.49a9.632 9.632 0 0 0 9.655-9.655V89.584a9.634 9.634 0 0 0-9.654-9.658zm67.05 0a9.637 9.637 0 0 0-9.657 9.658v85.9a9.634 9.634 0 0 0 9.657 9.656h36.49a9.634 9.634 0 0 0 9.655-9.655V89.584a9.637 9.637 0 0 0-9.656-9.658zm66.14 0a9.637 9.637 0 0 0-9.656 9.658v101a9.634 9.634 0 0 0 9.655 9.655h36.49a9.634 9.634 0 0 0 9.656-9.655v-101a9.637 9.637 0 0 0-9.656-9.658z"/>
</svg>