<svg xmlns="http://www.w3.org/2000/svg" xml:space="preserve" width="auto" height="auto" style="width:auto;height:auto" version="1.1" viewBox="0 0 1920 1080"><path fill="#e5e7eb" d="M0 0h1920v1080H0z"/><svg width="67.875" height="67.875" x="536.188" y="732.724" fill="none" stroke="#8034d5" stroke-linecap="round" stroke-width="5" version="1.1"><path stroke-linecap="round" d="m0 16.969 33.937.001M16.969 0l.001 33.937"/></svg><path fill="none" stroke="#8034d5" stroke-linecap="round" stroke-linejoin="round" stroke-width="5" d="m1489.485 264.663 39.385-39.385 39.386 39.385 39.385-39.385 39.386 39.385 39.386-39.385 39.385 39.385" transform="translate(-8.112 66.923)"/><path fill="none" stroke="#8034d5" stroke-linecap="round" stroke-linejoin="round" stroke-width="5" d="m-.039 858.31 39.385-39.384 39.386 39.385 39.385-39.385 39.386 39.385 39.386-39.385 39.385 39.385"/><circle cx="25.004" cy="25.004" r="25.004" fill="none" stroke="#8034d5" stroke-width="5" transform="translate(1311.386 110.172)"/><circle cx="151.366" cy="345.242" r="10.652" fill="none" stroke="#8034d5" stroke-width="5"/><svg width="59.183" height="59.183" x="442.129" y="760.008" fill="none" stroke="#8034d5" stroke-linecap="round" stroke-width="5" version="1.1"><path stroke-linecap="round" d="m0 14.796 29.592.001M14.796 0l.001 29.592"/></svg><path fill="none" stroke="#8034d5" stroke-linecap="round" stroke-linejoin="round" stroke-width="5" d="m1775.074 1097.18 27.553-27.553 27.553 27.553 27.552-27.553 27.553 27.553 27.553-27.553 27.553 27.553" transform="translate(-25.09 -190.63)"/><svg width="59.626" height="59.626" x="157.466" y="1011.16" fill="none" stroke="#8034d5" stroke-linecap="round" stroke-width="5" version="1.1"><path stroke-linecap="round" d="m0 14.906 29.813.001M14.906 0l.001 29.813"/></svg><svg width="57.843" height="57.843" x="1253.101" y="54.58" fill="none" stroke="#8034d5" stroke-linecap="round" stroke-linejoin="round" stroke-width="5" version="1.1"><path stroke-linecap="round" stroke-linejoin="round" d="m0 14.461 28.922.001M14.461 0l.001 28.922"/></svg><path fill="none" stroke="#8034d5" stroke-linecap="round" stroke-linejoin="round" stroke-width="5" d="m318.735 327.895 28.472-28.472 28.473 28.472 28.472-28.472 28.472 28.472 28.472-28.472 28.473 28.472" transform="translate(-52.782 -72.292)"/><svg width="84.179" height="84.179" x="523.894" y="329.885" fill="none" stroke="#8034d5" stroke-linecap="round" stroke-linejoin="round" stroke-width="5" version="1.1"><path stroke-linecap="round" stroke-linejoin="round" d="m0 21.045 42.09.001M21.045 0l.001 42.09"/></svg><svg width="110.507" height="110.507" x="528.581" y="780.362" fill="none" stroke="#8034d5" stroke-linecap="round" stroke-width="5" version="1.1"><path stroke-linecap="round" d="m0 27.627 55.253.001M27.627 0l.001 55.253"/></svg><circle cx="14.154" cy="14.154" r="14.154" fill="none" stroke="#8034d5" stroke-width="5" transform="translate(766.755 647.928)"/><svg width="77.805" height="77.805" x="981.167" y="1008.498" fill="none" stroke="#8034d5" stroke-linecap="round" stroke-linejoin="round" stroke-width="5" version="1.1"><path stroke-linecap="round" stroke-linejoin="round" d="m0 19.451 38.903.001M19.451 0l.001 38.903"/></svg><svg width="98.801" height="98.801" x="1021.686" y="433.388" fill="none" stroke="#8034d5" stroke-linecap="round" stroke-linejoin="round" stroke-width="5" version="1.1"><path stroke-linecap="round" stroke-linejoin="round" d="m0 24.7 49.401.001M24.7 0l.001 49.401"/></svg><path fill="none" stroke="#8034d5" stroke-linecap="round" stroke-linejoin="round" stroke-width="5" d="m1869.006 151.545 34.185-34.185 34.184 34.185 34.184-34.185 34.184 34.185 34.184-34.185 34.184 34.185" transform="translate(-661.123 502.94)"/><path fill="none" stroke="#8034d5" stroke-linecap="round" stroke-linejoin="round" stroke-width="5" d="m1869.006 151.545 34.185-34.185 34.184 34.185 34.184-34.185 34.184 34.185 34.184-34.185 34.184 34.185" transform="translate(-156.453 -89.975)"/><svg width="110.86" height="110.86" x="556.932" y="33.267" fill="none" stroke="#8034d5" stroke-linecap="round" stroke-linejoin="round" stroke-width="5" version="1.1"><path stroke-linecap="round" stroke-linejoin="round" d="m0 27.715 55.43.001M27.715 0l.001 55.43"/></svg><circle cx="14.782" cy="14.782" r="14.782" fill="none" stroke="#8034d5" stroke-width="5" transform="translate(1066.602 352.94)"/><circle cx="1821.275" cy="432.19" r="14.782" fill="none" stroke="#8034d5" stroke-width="5"/><circle cx="1638.977" cy="738.375" r="14.782" fill="none" stroke="#8034d5" stroke-width="5"/><path fill="none" stroke="#8034d5" stroke-linecap="round" stroke-linejoin="round" stroke-width="5" d="m324.431 1074.946 30.26-30.26 30.259 30.26 30.26-30.26 30.259 30.26 30.26-30.26 30.259 30.26"/><svg width="117.674" height="117.674" x="659.525" y="336.277" fill="none" stroke="#8034d5" stroke-linecap="round" stroke-linejoin="round" stroke-width="5" version="1.1"><path stroke-linecap="round" stroke-linejoin="round" d="m0 29.418 58.837.001M29.418 0l.001 58.837"/></svg><svg width="115.042" height="115.042" x="1292.358" y="884.365" fill="none" stroke="#8034d5" stroke-linecap="round" stroke-linejoin="round" stroke-width="5" version="1.1"><path stroke-linecap="round" stroke-linejoin="round" d="m0 28.761 57.521.001M28.761 0l.001 57.521"/></svg><path fill="#8034d5" fill-opacity="1" fill-rule="evenodd" stroke="none" stroke-dasharray="none" stroke-linecap="round" stroke-linejoin="round" stroke-opacity="1" stroke-width="2" d="M79.686 125.248c-.436-.012-.719.315-.719.725v18.01h.007l-.007.065v.046h-.005c-.062 2.39-2.035 4.296-4.451 4.302-2.466 0-4.465-1.977-4.465-4.415 0-2.438 2-4.415 4.465-4.415.227-.006 1.737-.006 1.885-.005.636.004.611.012.621-.552v-3.586c-.003-.565-.066-.575-.536-.607a87.257 87.257 0 0 0-1.97-.022c-5.131 0-9.29 4.113-9.29 9.188 0 5.074 4.159 9.187 9.29 9.187 5.13 0 9.29-4.113 9.29-9.187 0-.134-.004-.267-.01-.4 0 0-.028-17.064 0-17.56.028-.497-.039-.774-.81-.772-1.107.003-2.99.005-3.295-.002zm7.113 0c-.43-.01-.71.304-.71.708 0 0 .009 2.921 0 3.35-.01.427.301.714.713.714h6.47c.305-.006.308-.022.086.184l-6.833 6.338c-.513.443-.55.373-.08.865l2.597 2.724c.364.381.422.267.768.072a4.504 4.504 0 0 1 2.126-.541c2.465 0 4.464 1.976 4.464 4.415 0 2.438-1.999 4.414-4.464 4.414a4.473 4.473 0 0 1-3.773-2.053c-.209-.41-.234-.367-.637-.14l-3.368 1.902c-.426.224-.386.284-.18.622a9.307 9.307 0 0 0 7.958 4.442c5.049 0 9.155-3.984 9.284-8.946v-.391c-.063-3.907-2.59-7.221-6.114-8.487-.283-.081-.238-.093-.03-.287l5.334-4.946c.251-.224.272-.353.271-.615-.004-.917-.007-3.283 0-3.628.01-.43-.307-.716-.72-.716 0 0-12.735.01-13.163 0z" paint-order="normal"/></svg>