<svg xmlns="http://www.w3.org/2000/svg" width="960" height="540" version="1.1">
    <path fill="#282a36" stroke-width="1" d="M0 0H960V540H0z"/>
    <path fill="#bd93f9" stroke-width="1" d="m-2.069 252.109 160.334-41.398L318.6 256.25l160.334-5.796 160.334 34.774 160.334-52.989 160.334 29.806v279.02H-2.069Z"/>
    <path fill="#7e71b7" stroke-width="1" d="m-2.069 312.55 160.334 40.569L318.6 311.721l160.334-16.559 160.334 46.366 160.334-4.14 160.334-27.322v230.998H-2.069Z"/>
    <path fill="#4d4d75" stroke-width="1" d="m-2.069 377.958 160.334 35.601L318.6 353.947l160.334 21.527 160.334 23.182 160.334-41.397 160.334-.828v184.633H-2.069Z"/>
    <path fill="#282a36" stroke-width="1" d="m-2.069 484.763 160.334-35.602 160.335 7.452 160.334-4.968 160.334 33.118 160.334-.828 160.334-43.053v100.182H-2.069Z"/>
</svg>