<?xml version="1.0" encoding="UTF-8" standalone="no"?>
<svg
   xmlns:dc="http://purl.org/dc/elements/1.1/"
   xmlns:cc="http://creativecommons.org/ns#"
   xmlns:rdf="http://www.w3.org/1999/02/22-rdf-syntax-ns#"
   xmlns:svg="http://www.w3.org/2000/svg"
   xmlns="http://www.w3.org/2000/svg"
   xmlns:sodipodi="http://sodipodi.sourceforge.net/DTD/sodipodi-0.dtd"
   xmlns:inkscape="http://www.inkscape.org/namespaces/inkscape"
   width="825.747"
   height="872.442"
   viewBox="0 0 218.479 230.833"
   version="1.1"
   id="svg839"
   sodipodi:docname="b2ntp_logo.svg"
   inkscape:version="1.0.1 (c497b03c, 2020-09-10)">
  <metadata
     id="metadata845">
    <rdf:RDF>
      <cc:Work
         rdf:about="">
        <dc:format>image/svg+xml</dc:format>
        <dc:type
           rdf:resource="http://purl.org/dc/dcmitype/StillImage" />
      </cc:Work>
    </rdf:RDF>
  </metadata>
  <defs
     id="defs843" />
  <sodipodi:namedview
     pagecolor="#ffffff"
     bordercolor="#666666"
     borderopacity="1"
     objecttolerance="10"
     gridtolerance="10"
     guidetolerance="10"
     inkscape:pageopacity="0"
     inkscape:pageshadow="2"
     inkscape:window-width="1792"
     inkscape:window-height="995"
     id="namedview841"
     showgrid="false"
     inkscape:zoom="0.5330175"
     inkscape:cx="0.17623029"
     inkscape:cy="495.79374"
     inkscape:window-x="0"
     inkscape:window-y="25"
     inkscape:window-maximized="0"
     inkscape:current-layer="g837"
     inkscape:document-rotation="0" />
  <g
     transform="matrix(1.1737207,0,0,1.1737207,-126.76492,-132.45673)"
     paint-order="stroke markers fill"
     id="g837"
     style="stroke-width:0.851992">
    <rect
       width="230.83299"
       height="230.83299"
       x="85.657249"
       y="95.769379"
       rx="8.5199146"
       ry="8.5199146"
       fill="#fff"
       id="rect833"
       style="fill:#232323;fill-opacity:1;stroke-width:0.851992" />
    <path
       d="m 115.78275,121.90487 a 9.636,9.636 0 0 0 -9.657,9.658 v 8.354 a 9.636,9.636 0 0 0 9.657,9.657 h 170.584 a 9.636,9.636 0 0 0 9.657,-9.657 v -8.354 a 9.636,9.636 0 0 0 -9.657,-9.658 z m -0.002,42.208 a 9.637,9.637 0 0 0 -9.657,9.658 v 117.04 a 9.634,9.634 0 0 0 9.657,9.656 h 36.49 a 9.632,9.632 0 0 0 9.655,-9.655 v -117.041 a 9.634,9.634 0 0 0 -9.654,-9.658 z m 67.05,0 a 9.637,9.637 0 0 0 -9.657,9.658 v 85.901 a 9.634,9.634 0 0 0 9.657,9.655 h 36.489 a 9.634,9.634 0 0 0 9.656,-9.655 v -85.901 a 9.637,9.637 0 0 0 -9.656,-9.658 z m 66.14,0 a 9.637,9.637 0 0 0 -9.657,9.658 v 101 a 9.634,9.634 0 0 0 9.656,9.655 h 36.489 a 9.634,9.634 0 0 0 9.656,-9.655 v -101 a 9.637,9.637 0 0 0 -9.656,-9.658 z"
       fill="#ffffff"
       stroke="#000000"
       stroke-width="0.0851992"
       id="path835" />
  </g>
</svg>
